<!DOCTYPE svg PUBLIC "-//W3C//DTD SVG 1.1//EN" "http://www.w3.org/Graphics/SVG/1.1/DTD/svg11.dtd">
<!-- Uploaded to: SVG Repo, www.svgrepo.com, Transformed by: SVG Repo Mixer Tools -->
<svg width="201px" height="201px" viewBox="-2.4 -2.4 28.80 28.80" fill="none" xmlns="http://www.w3.org/2000/svg" transform="rotate(0)">
<g id="SVGRepo_bgCarrier" stroke-width="0" transform="translate(4.5600000000000005,4.5600000000000005), scale(0.62)">
<rect x="-2.4" y="-2.4" width="28.80" height="28.80" rx="14.4" fill="#e3e6ee" strokewidth="0"/>
</g>
<g id="SVGRepo_tracerCarrier" stroke-linecap="round" stroke-linejoin="round" stroke="#CCCCCC" stroke-width="0.048"/>
<g id="SVGRepo_iconCarrier"> <path d="M4.97883 9.68508C2.99294 8.89073 2 8.49355 2 8C2 7.50645 2.99294 7.10927 4.97883 6.31492L7.7873 5.19153C9.77318 4.39718 10.7661 4 12 4C13.2339 4 14.2268 4.39718 16.2127 5.19153L19.0212 6.31492C21.0071 7.10927 22 7.50645 22 8C22 8.49355 21.0071 8.89073 19.0212 9.68508L16.2127 10.8085C14.2268 11.6028 13.2339 12 12 12C10.7661 12 9.77318 11.6028 7.7873 10.8085L4.97883 9.68508Z" stroke="#1C274C" stroke-width="2.4"/> <path opacity="0.5" d="M5.76613 10L4.97883 10.3149C2.99294 11.1093 2 11.5065 2 12C2 12.4935 2.99294 12.8907 4.97883 13.6851L7.7873 14.8085C9.77318 15.6028 10.7661 16 12 16C13.2339 16 14.2268 15.6028 16.2127 14.8085L19.0212 13.6851C21.0071 12.8907 22 12.4935 22 12C22 11.5065 21.0071 11.1093 19.0212 10.3149L18.2339 10M5.76613 14L4.97883 14.3149C2.99294 15.1093 2 15.5065 2 16C2 16.4935 2.99294 16.8907 4.97883 17.6851L7.7873 18.8085C9.77318 19.6028 10.7661 20 12 20C13.2339 20 14.2268 19.6028 16.2127 18.8085L19.0212 17.6851C21.0071 16.8907 22 16.4935 22 16C22 15.5065 21.0071 15.1093 19.0212 14.3149L18.2339 14" stroke="#1C274C" stroke-width="2.4"/> </g>
</svg>